<svg id="Layer_1" data-name="Layer 1" xmlns="http://www.w3.org/2000/svg" xmlns:xlink="http://www.w3.org/1999/xlink" viewBox="0 0 778 526.2"><defs><style>.cls-1,.cls-17,.cls-5{fill:none;}.cls-2{isolation:isolate;}.cls-18,.cls-3{fill:#fff;}.cls-4{clip-path:url(#clip-path);}.cls-5{stroke:#ebebeb;}.cls-17,.cls-5{stroke-linejoin:round;stroke-width:1.75px;}.cls-6{clip-path:url(#clip-path-2);}.cls-30,.cls-7{fill:#4a81bf;}.cls-8{clip-path:url(#clip-path-3);}.cls-9{clip-path:url(#clip-path-4);}.cls-10{clip-path:url(#clip-path-5);}.cls-11{clip-path:url(#clip-path-6);}.cls-12{clip-path:url(#clip-path-7);}.cls-13{clip-path:url(#clip-path-8);}.cls-14{clip-path:url(#clip-path-9);}.cls-15{clip-path:url(#clip-path-10);}.cls-16{clip-path:url(#clip-path-11);}.cls-17{stroke:#284f77;opacity:0.9;}.cls-18{font-size:14.23px;}.cls-18,.cls-30{font-family:Roboto-Black, Roboto;font-weight:800;}.cls-19,.cls-22{font-size:14.4px;fill:#4d4d4d;}.cls-19,.cls-22,.cls-26,.cls-32{font-family:Roboto-Medium, Roboto;font-weight:500;}.cls-20,.cls-22{letter-spacing:4.25em;}.cls-21{letter-spacing:4.25em;}.cls-23{letter-spacing:4.25em;}.cls-24{letter-spacing:0em;}.cls-25{font-size:18px;fill:#666;}.cls-25,.cls-29{font-family:Roboto-Regular, Roboto;}.cls-26{font-size:17px;fill:#595959;}.cls-27{letter-spacing:-0.01em;}.cls-28{letter-spacing:0em;}.cls-29{font-weight:400;}.cls-31{letter-spacing:-0.01em;}.cls-32{font-size:22px;fill:#424242;}</style><clipPath id="clip-path"><rect class="cls-1" x="61.81" y="476" width="707.23" height="1.77"/></clipPath><clipPath id="clip-path-2"><rect class="cls-1" x="79" y="286" width="49" height="191.77"/></clipPath><clipPath id="clip-path-3"><rect class="cls-1" x="148" y="269" width="50" height="208.77"/></clipPath><clipPath id="clip-path-4"><rect class="cls-1" x="217" y="257" width="50" height="220.77"/></clipPath><clipPath id="clip-path-5"><rect class="cls-1" x="287" y="237" width="49" height="240.77"/></clipPath><clipPath id="clip-path-6"><rect class="cls-1" x="356" y="233" width="50" height="244.77"/></clipPath><clipPath id="clip-path-7"><rect class="cls-1" x="425" y="213" width="50" height="264.77"/></clipPath><clipPath id="clip-path-8"><rect class="cls-1" x="495" y="216" width="49" height="261.77"/></clipPath><clipPath id="clip-path-9"><rect class="cls-1" x="564" y="169" width="50" height="308.77"/></clipPath><clipPath id="clip-path-10"><rect class="cls-1" x="633" y="146" width="50" height="331.77"/></clipPath><clipPath id="clip-path-11"><rect class="cls-1" x="703" y="162" width="49" height="315.77"/></clipPath></defs><g class="cls-2"><rect class="cls-3" width="778" height="526.2"/><rect class="cls-3" width="778" height="526.2"/><g class="cls-4"><line class="cls-5" x1="61.81" y1="477.77" x2="769.03" y2="477.77"/></g><g class="cls-6"><rect class="cls-7" x="79.14" y="286.51" width="48.53" height="191.26"/></g><g class="cls-8"><rect class="cls-7" x="148.48" y="269.02" width="48.54" height="208.75"/></g><g class="cls-9"><rect class="cls-7" x="217.81" y="257.19" width="48.53" height="220.58"/></g><g class="cls-10"><rect class="cls-7" x="287.15" y="237.74" width="48.54" height="240.03"/></g><g class="cls-11"><rect class="cls-7" x="356.48" y="233.37" width="48.54" height="244.4"/></g><g class="cls-12"><rect class="cls-7" x="425.82" y="213.52" width="48.54" height="264.25"/></g><g class="cls-13"><rect class="cls-7" x="495.16" y="216.52" width="48.53" height="261.25"/></g><g class="cls-14"><rect class="cls-7" x="564.49" y="169.49" width="48.53" height="308.28"/></g><g class="cls-15"><rect class="cls-7" x="633.83" y="146.02" width="48.53" height="331.75"/></g><g class="cls-16"><rect class="cls-7" x="703.16" y="162.97" width="48.53" height="314.8"/></g><line class="cls-17" x1="98.21" y1="271.85" x2="108.61" y2="271.85"/><line class="cls-17" x1="103.41" y1="271.85" x2="103.41" y2="301.16"/><line class="cls-17" x1="98.21" y1="301.16" x2="108.61" y2="301.16"/><line class="cls-17" x1="167.55" y1="251.89" x2="177.95" y2="251.89"/><line class="cls-17" x1="172.75" y1="251.89" x2="172.75" y2="286.15"/><line class="cls-17" x1="167.55" y1="286.15" x2="177.95" y2="286.15"/><line class="cls-17" x1="236.88" y1="243.71" x2="247.28" y2="243.71"/><line class="cls-17" x1="242.08" y1="243.71" x2="242.08" y2="270.67"/><line class="cls-17" x1="236.88" y1="270.67" x2="247.28" y2="270.67"/><line class="cls-17" x1="306.22" y1="226.04" x2="316.62" y2="226.04"/><line class="cls-17" x1="311.42" y1="226.04" x2="311.42" y2="249.43"/><line class="cls-17" x1="306.22" y1="249.43" x2="316.62" y2="249.43"/><line class="cls-17" x1="375.55" y1="224.23" x2="385.95" y2="224.23"/><line class="cls-17" x1="380.75" y1="224.23" x2="380.75" y2="242.5"/><line class="cls-17" x1="375.55" y1="242.5" x2="385.95" y2="242.5"/><line class="cls-17" x1="444.89" y1="199.18" x2="455.29" y2="199.18"/><line class="cls-17" x1="450.09" y1="199.18" x2="450.09" y2="227.86"/><line class="cls-17" x1="444.89" y1="227.86" x2="455.29" y2="227.86"/><line class="cls-17" x1="514.22" y1="200.84" x2="524.63" y2="200.84"/><line class="cls-17" x1="519.43" y1="200.84" x2="519.43" y2="232.19"/><line class="cls-17" x1="514.22" y1="232.19" x2="524.63" y2="232.19"/><line class="cls-17" x1="583.56" y1="153.72" x2="593.96" y2="153.72"/><line class="cls-17" x1="588.76" y1="153.72" x2="588.76" y2="185.26"/><line class="cls-17" x1="583.56" y1="185.26" x2="593.96" y2="185.26"/><line class="cls-17" x1="652.9" y1="94.04" x2="663.3" y2="94.04"/><line class="cls-17" x1="658.1" y1="94.04" x2="658.1" y2="197.99"/><line class="cls-17" x1="652.9" y1="197.99" x2="663.3" y2="197.99"/><line class="cls-17" x1="722.23" y1="121.23" x2="732.63" y2="121.23"/><line class="cls-17" x1="727.43" y1="121.23" x2="727.43" y2="204.72"/><line class="cls-17" x1="722.23" y1="204.72" x2="732.63" y2="204.72"/><text class="cls-18" transform="translate(93.51 325.41)">4,9</text><text class="cls-18" transform="translate(162.85 307.92)">5,4</text><text class="cls-18" transform="translate(232.18 296.09)">5,7</text><text class="cls-18" transform="translate(301.52 276.64)">6,2</text><text class="cls-18" transform="translate(370.86 272.27)">6,3</text><text class="cls-18" transform="translate(440.19 252.42)">6,8</text><text class="cls-18" transform="translate(509.53 255.41)">6,8</text><text class="cls-18" transform="translate(578.86 208.39)">8,0</text><text class="cls-18" transform="translate(648.2 184.91)">8,6</text><text class="cls-18" transform="translate(717.54 201.87)">8,1</text><text class="cls-19" transform="translate(45.65 483.39)">0</text><text class="cls-19" transform="translate(45.65 444.68)">1</text><text class="cls-19" transform="translate(45.65 405.98)">2</text><text class="cls-19" transform="translate(45.65 367.27)">3</text><text class="cls-19" transform="translate(45.65 328.57)">4</text><text class="cls-19" transform="translate(45.65 289.86)">5</text><text class="cls-19" transform="translate(45.65 251.16)">6</text><text class="cls-19" transform="translate(45.65 212.46)">7</text><text class="cls-19" transform="translate(45.65 173.75)">8</text><text class="cls-19" transform="translate(45.65 135.05)">9</text><text class="cls-19" transform="translate(37.57 96.34)">10</text><text class="cls-19" transform="translate(99.37 497.07)"><tspan class="cls-20">1</tspan><tspan class="cls-21" x="69.41" y="0">2</tspan><tspan x="138.85" y="0">3</tspan></text><text class="cls-22" transform="translate(307.38 497.07)">4<tspan class="cls-23" x="69.41" y="0">5</tspan><tspan class="cls-24" x="138.86" y="0">6</tspan></text><text class="cls-22" transform="translate(515.38 497.07)">7<tspan class="cls-23" x="69.41" y="0">8</tspan><tspan class="cls-24" x="138.86" y="0">9</tspan></text><text class="cls-19" transform="translate(719.35 497.07)">10</text><text class="cls-25" transform="translate(61.81 521.3)">Escala de renda do domicílio</text><text class="cls-25" transform="translate(22.76 417.02) rotate(-90)">Satisfação com a renda (média de 1 a 10)</text></g><text class="cls-26" transform="translate(62.25 50.11)">Da faixa 1 (mais baixa) à 10 (mais alta), a média c<tspan class="cls-27" x="378.54" y="0">r</tspan><tspan class="cls-28" x="384.36" y="0">esce</tspan><tspan class="cls-29" x="420.28" y="0"> </tspan><tspan class="cls-30" x="424.48" y="0">3,2</tspan><tspan class="cls-29" x="448.76" y="0"> </tspan><tspan x="452.96" y="0">pon</tspan><tspan class="cls-31" x="481.67" y="0">t</tspan><tspan x="487.07" y="0">os. Bar</tspan><tspan class="cls-31" x="540.4" y="0">r</tspan><tspan x="546.13" y="0">as = média; </tspan><tspan x="0" y="20.4">hastes = IC 95% </tspan></text><text class="cls-32" transform="translate(61.81 25.32)">Quando a renda<tspan class="cls-29" x="155.45" y="0"> </tspan><tspan class="cls-30" x="160.9" y="0">sobe</tspan><tspan x="208.88" y="0">, a satisfação</tspan><tspan class="cls-29" x="339.76" y="0"> </tspan><tspan class="cls-30" x="345.21" y="0">sobe junto</tspan></text></svg>